{
    "asset" : {
        "generator" : "Khronos glTF Blender I/O v1.6.16",
        "version" : "2.0"
    },
    "scene" : 0,
    "scenes" : [
        {
            "name" : "Scene",
            "nodes" : [
                0
            ]
        }
    ],
    "nodes" : [
        {
            "mesh" : 0,
            "name" : "commode",
            "translation" : [
                7.183239459991455,
                0.3585507273674011,
                8.633505821228027
            ]
        }
    ],
    "meshes" : [
        {
            "name" : "Cube.007",
            "primitives" : [
                {
                    "attributes" : {
                        "POSITION" : 0,
                        "NORMAL" : 1,
                        "TEXCOORD_0" : 2
                    },
                    "indices" : 3
                }
            ]
        }
    ],
    "accessors" : [
        {
            "bufferView" : 0,
            "componentType" : 5126,
            "count" : 425,
            "max" : [
                0.4422140121459961,
                0.3709871470928192,
                1.277483344078064
            ],
            "min" : [
                -0.4664653241634369,
                -0.3709871470928192,
                -1.277483344078064
            ],
            "type" : "VEC3"
        },
        {
            "bufferView" : 1,
            "componentType" : 5126,
            "count" : 425,
            "type" : "VEC3"
        },
        {
            "bufferView" : 2,
            "componentType" : 5126,
            "count" : 425,
            "type" : "VEC2"
        },
        {
            "bufferView" : 3,
            "componentType" : 5123,
            "count" : 780,
            "type" : "SCALAR"
        }
    ],
    "bufferViews" : [
        {
            "buffer" : 0,
            "byteLength" : 5100,
            "byteOffset" : 0
        },
        {
            "buffer" : 0,
            "byteLength" : 5100,
            "byteOffset" : 5100
        },
        {
            "buffer" : 0,
            "byteLength" : 3400,
            "byteOffset" : 10200
        },
        {
            "buffer" : 0,
            "byteLength" : 1560,
            "byteOffset" : 13600
        }
    ],
    "buffers" : [
        {
            "byteLength" : 15160,
            "uri" : "data:application/octet-stream;base64,"
        }
    ]
}
